# xmcd CD database file
#
# Track frame offsets:
#	150
#	15306
#	28051
#	42912
#	55437
#	67843
#	82770
#	96875
#	110781
#	126549
#
# Disc length: 1864 seconds
#
# Revision: 0
# Processed by: cddbd v1.5.2PL0 Copyright (c) Steve Scherf et al.
# Submitted via: CDex 1.70beta2
#
DISCID=7f07460a
DTITLE=King Oliver and His Orchestra - Original Artist 4
DYEAR=1900
DGENRE=Jazz
TTITLE0=Frankie&Johnny
TTITLE1=I'm Lonesome, Swetheart
TTITLE2=The trumpet's Prayer
TTITLE3=New Orleans Shout
TTITLE4=Edna
TTITLE5=Nelson Stomp
TTITLE6=Snag It
TTITLE7=Blue Blood Blues
TTITLE8=Sweet Liks This
TTITLE9=Rhythm Club Stomp
EXTD=
EXTT0=
EXTT1=
EXTT2=
EXTT3=
EXTT4=
EXTT5=
EXTT6=
EXTT7=
EXTT8=
EXTT9=
PLAYORDER=
